<?xml version="1.0" standalone="no"?>
<!DOCTYPE svg PUBLIC "-//W3C//DTD SVG 20010904//EN"
 "http://www.w3.org/TR/2001/REC-SVG-20010904/DTD/svg10.dtd">
<svg version="1.0" xmlns="http://www.w3.org/2000/svg"
 width="700.000000pt" height="700.000000pt" viewBox="0 0 700.000000 700.000000"
 preserveAspectRatio="xMidYMid meet">
<metadata>
Created by potrace 1.14, written by Peter Selinger 2001-2017
</metadata>
<g transform="translate(0.000000,700.000000) scale(0.100000,-0.100000)"
fill="#000000" stroke="none">
<path d="M3390 6792 c0 -7 -12 -10 -30 -8 -17 2 -33 0 -35 -5 -3 -4 -17 -6
-30 -3 -14 2 -25 1 -25 -3 0 -7 -15 -9 -117 -16 -17 -1 -29 -5 -26 -9 2 -5
-10 -8 -26 -8 -17 0 -31 -4 -31 -9 0 -6 -9 -8 -20 -6 -11 2 -20 -1 -20 -7 0
-5 -6 -8 -14 -5 -7 3 -23 -1 -35 -9 -11 -8 -21 -12 -21 -8 0 3 -7 1 -15 -6 -8
-6 -19 -9 -25 -5 -5 3 -10 1 -10 -4 0 -6 -6 -11 -13 -11 -7 0 -29 -9 -50 -20
-20 -11 -37 -17 -37 -13 0 5 -7 -1 -16 -12 -8 -11 -17 -19 -19 -17 -11 5 -23
1 -43 -18 -12 -12 -22 -18 -22 -15 0 3 -13 -2 -30 -12 -16 -9 -30 -21 -30 -26
0 -4 -4 -5 -10 -2 -5 3 -10 2 -10 -4 0 -5 -10 -13 -22 -17 -13 -4 -29 -15 -36
-25 -7 -11 -20 -19 -28 -19 -8 0 -17 -7 -20 -15 -4 -8 -10 -12 -15 -9 -5 3 -9
0 -9 -5 0 -6 -7 -11 -16 -11 -8 0 -13 -4 -10 -8 3 -5 -6 -15 -20 -23 -14 -7
-35 -26 -46 -41 -11 -16 -24 -26 -29 -23 -5 4 -9 2 -9 -3 0 -4 -22 -33 -49
-63 -27 -30 -56 -62 -65 -71 -9 -10 -16 -23 -16 -29 0 -5 -4 -8 -9 -5 -5 3
-16 -10 -25 -29 -9 -19 -21 -35 -26 -35 -6 0 -10 -5 -10 -11 0 -5 -17 -36 -37
-67 -21 -32 -43 -66 -50 -77 -6 -11 -17 -18 -25 -17 -7 2 -24 5 -38 7 -14 2
-26 4 -27 6 -2 1 -7 3 -13 4 -5 1 -11 3 -12 5 -2 1 -19 3 -38 5 -19 2 -48 7
-65 10 -16 4 -46 8 -65 9 -20 1 -41 5 -47 9 -6 4 -15 3 -18 -3 -5 -8 -11 -8
-20 0 -9 8 -15 8 -20 0 -3 -6 -12 -7 -18 -3 -18 11 -56 12 -63 2 -4 -6 -11 -6
-20 2 -11 9 -14 8 -14 -2 0 -9 -3 -10 -8 -4 -8 12 -22 13 -39 2 -8 -5 -13 -4
-13 3 0 8 -6 8 -21 0 -14 -8 -24 -8 -33 -1 -7 6 -16 8 -20 4 -3 -4 -14 -8 -24
-9 -86 -12 -162 -30 -162 -38 0 -6 -5 -4 -10 4 -5 8 -10 10 -10 4 0 -6 -6 -11
-12 -12 -7 -1 -24 -4 -38 -6 -14 -2 -31 -5 -38 -5 -7 -1 -11 -5 -8 -9 2 -4 -3
-8 -12 -9 -27 -2 -54 -10 -104 -32 -27 -11 -48 -17 -48 -13 0 4 -5 -1 -11 -10
-5 -10 -16 -15 -24 -12 -8 4 -15 2 -15 -3 0 -6 -18 -16 -40 -23 -22 -7 -40
-17 -40 -22 0 -5 -4 -6 -10 -3 -5 3 -10 2 -10 -3 0 -4 -16 -16 -35 -25 -19 -9
-35 -22 -35 -27 0 -6 -5 -8 -11 -5 -6 4 -19 -2 -30 -14 -11 -12 -24 -19 -30
-16 -5 4 -9 -2 -9 -11 0 -10 -3 -15 -6 -11 -5 5 -33 -15 -70 -50 -7 -7 -16
-13 -20 -13 -3 0 -14 -8 -23 -19 -9 -10 -36 -35 -60 -55 -23 -20 -41 -36 -38
-36 3 0 -16 -22 -41 -49 -62 -64 -83 -91 -75 -91 4 0 -3 -7 -15 -16 -12 -8
-22 -21 -22 -28 0 -8 -6 -16 -12 -19 -7 -3 -22 -22 -33 -43 -11 -22 -23 -41
-27 -44 -3 -3 -8 -12 -10 -19 -2 -8 -11 -23 -21 -33 -10 -10 -15 -23 -12 -28
4 -6 2 -10 -4 -10 -5 0 -15 -16 -22 -35 -7 -19 -17 -35 -22 -35 -4 0 -6 -4 -2
-9 3 -5 1 -12 -5 -16 -6 -4 -8 -11 -5 -16 4 -5 1 -9 -5 -9 -6 0 -9 -4 -5 -9 3
-5 0 -13 -6 -16 -5 -4 -8 -13 -5 -20 2 -7 -2 -16 -10 -19 -9 -3 -13 -10 -9
-15 3 -5 1 -12 -5 -16 -6 -4 -8 -10 -5 -15 3 -5 1 -11 -5 -15 -6 -4 -8 -10 -5
-15 3 -4 -2 -23 -9 -42 -8 -19 -17 -48 -20 -64 -2 -16 -5 -31 -6 -34 -1 -3 -2
-8 -1 -12 0 -5 -3 -8 -8 -8 -4 0 -6 -11 -3 -25 2 -14 0 -25 -4 -25 -5 0 -9
-23 -9 -50 0 -27 -3 -50 -6 -50 -4 0 -7 -74 -7 -165 0 -97 4 -163 9 -159 5 3
9 0 9 -5 0 -6 -5 -11 -11 -11 -5 0 -8 -4 -4 -9 3 -6 8 -32 11 -58 6 -52 11
-87 14 -90 2 -2 3 -6 4 -10 1 -5 5 -14 9 -20 5 -8 3 -13 -4 -13 -8 0 -8 -4 1
-15 7 -8 9 -15 5 -15 -4 0 -2 -7 5 -15 7 -9 11 -18 8 -20 -6 -7 56 -191 70
-207 6 -7 10 -15 9 -18 -2 -12 57 -130 64 -130 5 0 9 -9 9 -20 0 -11 3 -20 8
-20 4 0 16 -18 26 -40 11 -22 23 -40 27 -40 4 0 16 -16 25 -36 9 -20 25 -41
35 -47 9 -6 15 -17 12 -24 -3 -7 2 -13 11 -13 9 0 16 -5 16 -10 0 -6 22 -34
50 -63 27 -28 50 -55 50 -59 0 -5 7 -8 17 -8 9 0 14 -3 11 -6 -5 -5 49 -58 90
-89 7 -5 22 -18 32 -27 10 -9 21 -14 24 -10 3 3 6 -2 6 -12 0 -9 4 -15 8 -12
5 3 20 -6 35 -20 15 -14 27 -22 27 -19 0 4 18 -8 40 -25 22 -17 40 -29 40 -25
0 3 7 -1 16 -9 8 -9 24 -16 35 -16 10 0 19 -5 19 -11 0 -5 5 -7 10 -4 6 3 10
3 10 -2 0 -9 34 -27 110 -55 30 -11 60 -24 65 -28 6 -4 24 -11 40 -15 17 -5
37 -10 45 -12 8 -2 21 -5 28 -5 6 -1 12 -5 12 -9 0 -4 9 -6 20 -4 22 4 21 7
23 -90 0 -39 5 -65 11 -65 8 0 8 -3 0 -8 -14 -9 -13 -145 1 -154 7 -5 7 -8 -1
-8 -14 0 -14 -150 1 -150 7 0 6 -3 -1 -8 -14 -9 -14 -152 0 -152 8 0 8 -3 0
-8 -14 -9 -13 -145 1 -154 7 -5 6 -8 -1 -8 -13 0 -13 -108 0 -129 7 -10 6 -12
-3 -6 -16 9 -12 -42 4 -64 7 -11 7 -13 -1 -8 -14 8 -14 -141 0 -162 6 -9 5
-12 -1 -8 -13 8 -14 -152 -1 -173 7 -12 8 -11 4 4 -5 14 -3 16 6 9 7 -5 23 -8
36 -7 12 0 22 -4 22 -10 0 -6 4 -5 9 2 4 8 12 14 16 14 4 0 12 -6 16 -14 6 -8
12 -9 17 -3 10 15 32 17 46 5 7 -5 16 -6 20 -2 11 10 30 9 39 -3 5 -7 9 -7 15
0 10 14 62 15 62 1 0 -6 4 -5 9 2 4 8 12 14 16 14 4 0 12 -6 16 -14 5 -7 9 -8
9 -2 0 6 7 11 15 11 8 0 15 -5 15 -11 0 -6 4 -5 9 2 4 8 12 14 16 14 4 0 12
-6 16 -14 6 -8 12 -9 17 -3 10 15 32 17 46 5 7 -5 16 -6 20 -2 11 10 30 9 39
-3 5 -7 9 -7 15 0 10 14 62 15 62 1 0 -6 4 -5 9 2 4 8 12 14 16 14 4 0 12 -6
16 -14 6 -8 12 -9 17 -3 10 15 32 17 46 5 7 -5 16 -6 20 -2 11 10 30 9 39 -3
4 -6 10 -5 16 3 11 17 21 17 32 0 5 -7 9 -8 9 -3 0 14 38 17 45 4 4 -5 12 -6
18 -2 17 11 31 10 40 -2 5 -7 9 -7 15 0 9 13 62 15 62 2 0 -5 5 -5 13 2 10 8
17 7 27 -2 8 -7 11 -8 7 -1 -5 8 2 11 18 10 14 0 25 -5 25 -11 0 -7 3 -7 8 0
10 14 62 15 62 1 0 -6 4 -5 9 2 4 8 12 14 16 14 4 0 12 -6 16 -14 6 -8 12 -9
17 -3 10 15 32 17 46 5 7 -5 16 -6 20 -2 11 10 30 9 39 -3 5 -7 9 -7 15 0 10
14 62 15 62 1 0 -6 4 -5 9 2 11 17 21 17 32 0 5 -7 9 -8 9 -2 0 6 7 11 15 11
8 0 15 -5 15 -11 0 -6 5 -5 12 2 9 9 15 9 27 -1 12 -9 13 -9 7 0 -9 16 35 13
46 -2 5 -6 8 -5 8 3 0 10 5 10 20 2 11 -6 20 -7 20 -2 0 11 38 13 45 1 4 -5
12 -6 18 -2 17 11 31 10 40 -2 4 -6 10 -5 16 3 11 17 21 17 32 0 5 -7 9 -8 9
-3 0 14 38 17 45 4 4 -5 12 -6 18 -2 17 11 31 10 40 -2 5 -7 9 -7 15 0 10 14
62 15 62 1 0 -6 4 -5 9 2 4 8 12 14 16 14 4 0 12 -6 16 -14 6 -8 12 -9 17 -3
10 15 32 17 46 5 7 -5 16 -6 20 -2 11 10 30 9 39 -3 5 -7 9 -7 15 0 10 14 62
15 62 1 0 -6 4 -5 9 2 11 17 21 17 32 0 5 -7 9 -8 9 -2 0 14 30 14 30 0 0 -6
4 -5 9 2 4 8 12 14 16 14 4 0 12 -6 16 -14 6 -8 12 -9 17 -3 10 15 32 17 46 5
7 -5 16 -6 20 -2 11 10 30 9 39 -3 5 -7 9 -7 15 0 10 14 62 15 62 1 0 -6 4 -5
9 2 4 8 12 14 16 14 4 0 12 -6 16 -14 6 -8 12 -9 17 -3 10 15 32 17 46 5 7 -5
16 -6 20 -2 11 10 30 9 39 -3 4 -6 10 -5 16 3 4 8 12 14 16 14 4 0 12 -6 16
-14 5 -7 9 -8 9 -3 0 14 38 17 45 4 4 -5 12 -6 18 -2 17 11 31 10 40 -2 5 -7
9 -7 15 0 9 13 62 15 62 2 0 -5 5 -5 13 2 10 8 17 7 27 -2 8 -7 11 -8 7 -1 -5
8 2 11 18 10 14 0 25 -5 25 -11 0 -7 3 -7 8 0 10 14 62 15 62 1 0 -6 4 -5 9 2
4 8 12 14 16 14 4 0 12 -6 16 -14 6 -8 12 -9 17 -3 10 15 32 17 46 5 7 -5 16
-6 20 -2 11 10 30 9 39 -3 5 -7 9 -7 15 0 10 14 62 15 62 1 0 -6 4 -5 9 2 4 8
12 14 16 14 4 0 12 -6 16 -14 5 -7 9 -8 9 -2 0 6 7 11 15 11 8 0 15 -5 15 -10
0 -5 6 -5 13 2 10 8 17 7 27 -2 10 -9 11 -9 6 0 -9 16 35 13 46 -2 5 -6 8 -5
8 3 0 10 5 10 20 2 11 -6 20 -7 20 -2 0 11 38 13 45 1 4 -5 12 -6 18 -2 17 11
31 10 40 -2 4 -6 10 -5 16 3 4 8 12 14 16 14 4 0 12 -6 16 -14 5 -7 9 -8 9 -3
0 14 38 17 45 4 4 -5 12 -6 18 -2 17 11 31 10 40 -2 4 -6 10 -5 16 3 4 8 12
14 16 14 4 0 12 -6 16 -14 5 -7 9 -8 9 -3 0 14 38 17 45 4 4 -5 12 -6 18 -2
17 11 31 10 40 -2 4 -6 10 -5 16 3 4 8 12 14 16 14 4 0 12 -6 16 -14 5 -7 9
-8 9 -3 0 14 38 17 45 4 4 -5 12 -6 18 -2 17 11 31 10 40 -2 5 -7 9 -7 15 0 9
13 62 15 62 2 0 -5 5 -5 13 2 10 8 17 7 27 -2 8 -7 11 -8 7 -1 -5 8 2 11 18
10 14 0 25 -5 25 -11 0 -7 3 -7 8 0 10 14 62 15 62 1 0 -6 4 -5 9 2 4 8 12 14
16 14 4 0 12 -6 16 -14 7 -10 9 -10 9 2 0 13 1 13 10 0 5 -8 10 -10 10 -4 0 6
7 11 15 11 8 0 15 -5 15 -11 0 -5 7 -1 16 10 8 10 12 13 8 5 -5 -9 -3 -12 4
-7 15 9 13 136 -2 155 -8 11 -8 13 0 8 16 -9 15 133 0 152 -8 11 -8 13 0 8 14
-8 14 271 0 292 -6 9 -5 12 2 7 14 -9 13 94 -2 113 -8 11 -8 13 1 8 15 -10 15
92 -1 112 -8 11 -8 13 1 8 15 -10 15 92 -1 112 -8 11 -8 13 1 8 15 -10 15 92
-1 112 -8 11 -8 13 0 8 8 -4 11 17 11 73 0 53 -3 80 -11 80 -8 0 -8 2 1 8 6 4
10 22 9 41 -2 29 2 35 28 46 17 7 34 11 38 9 5 -3 8 -1 8 5 0 5 9 8 20 6 11
-2 20 -1 20 3 0 4 18 13 39 19 22 7 65 24 95 38 30 14 60 25 65 25 6 0 11 5
11 11 0 5 4 8 9 4 5 -3 16 2 24 10 9 8 23 15 31 15 9 0 16 5 16 10 0 6 18 17
40 26 22 9 40 20 40 25 0 5 7 9 15 9 9 0 18 7 21 15 4 8 10 13 14 10 5 -3 16
5 24 17 9 12 16 19 16 15 0 -4 6 -3 13 3 70 58 96 80 129 113 21 20 43 37 50
37 6 0 9 3 5 6 -3 3 8 19 26 35 17 16 27 29 22 29 -6 1 2 8 18 16 15 8 27 21
27 29 0 8 8 19 18 24 9 6 14 11 10 11 -5 0 0 8 10 18 25 27 54 69 54 79 0 4 6
12 14 16 8 5 12 12 9 18 -4 5 -2 9 3 9 5 0 15 13 22 30 7 17 17 27 24 23 6 -3
8 -3 4 2 -4 4 6 32 22 62 17 31 28 59 25 63 -3 4 2 11 11 14 8 3 12 10 9 16
-3 5 -1 10 6 10 7 0 10 3 6 6 -3 3 5 31 19 62 14 31 22 62 20 69 -3 7 -2 13 3
13 8 0 25 56 22 73 0 4 2 7 7 7 4 0 8 12 9 28 3 40 8 66 15 77 3 6 4 18 3 28
-2 9 0 17 4 17 4 0 7 27 7 59 -1 33 2 57 6 55 4 -3 5 64 3 148 -4 138 -9 203
-14 203 -1 0 -4 20 -6 45 -4 42 -12 85 -15 85 -2 0 -10 37 -12 63 -1 12 -6 22
-10 22 -4 0 -8 13 -8 29 0 17 -4 32 -9 35 -4 3 -11 20 -15 37 -3 17 -12 45
-20 62 -7 18 -19 47 -26 64 -7 18 -16 30 -21 28 -4 -3 -6 3 -4 14 2 11 -3 25
-11 32 -8 6 -14 16 -14 21 0 6 -9 22 -19 36 -10 15 -20 32 -22 37 -6 22 -34
65 -42 65 -5 0 -5 5 -2 10 3 6 1 10 -4 10 -6 0 -11 7 -11 15 0 8 -4 15 -10 15
-5 0 -16 13 -24 29 -9 16 -31 45 -51 65 -19 20 -35 40 -35 44 0 4 -9 13 -20
20 -12 7 -18 18 -14 25 4 7 4 9 0 5 -4 -3 -32 18 -61 48 -30 30 -59 54 -65 54
-6 0 -13 7 -16 15 -3 8 -14 17 -25 20 -11 4 -17 11 -14 16 4 5 -1 9 -9 9 -8 0
-20 9 -26 20 -6 11 -17 20 -24 20 -8 0 -19 7 -26 15 -7 8 -16 12 -21 9 -5 -3
-12 2 -15 10 -3 9 -15 16 -25 16 -10 0 -19 5 -19 11 0 5 -15 17 -32 25 -18 8
-40 18 -48 23 -20 13 -53 25 -62 23 -5 -1 -8 2 -8 7 0 8 -52 33 -75 36 -5 0
-20 6 -32 13 -12 7 -29 12 -37 12 -9 0 -16 4 -16 9 0 5 -8 8 -17 6 -10 -1 -24
2 -31 8 -7 5 -15 7 -18 4 -4 -3 -12 0 -19 7 -7 7 -27 12 -44 11 -17 -1 -31 2
-31 8 0 5 -7 7 -15 3 -8 -3 -15 -2 -15 2 0 4 -10 8 -22 9 -13 1 -36 4 -53 7
-16 4 -56 8 -88 10 -32 2 -61 7 -64 10 -3 3 -12 1 -20 -5 -7 -6 -13 -7 -13 -3
0 11 -120 11 -137 1 -6 -4 -15 -2 -19 4 -4 8 -9 7 -15 -2 -6 -10 -9 -10 -9 -2
0 7 -7 10 -16 6 -8 -3 -30 -6 -47 -7 -18 -1 -38 -5 -44 -9 -8 -5 -13 -3 -13 5
0 10 -2 10 -9 0 -4 -8 -19 -13 -32 -11 -13 1 -35 -3 -49 -8 -14 -6 -33 -9 -42
-7 -10 1 -18 -1 -18 -6 0 -5 -14 -8 -31 -8 -22 1 -34 8 -45 29 -8 16 -14 31
-14 34 0 3 -9 15 -20 27 -11 12 -20 28 -20 35 0 7 -4 13 -8 13 -4 0 -15 13
-24 28 -48 80 -288 334 -318 336 -3 1 -21 16 -40 34 -19 18 -45 35 -57 39 -13
3 -23 9 -23 14 0 5 -8 9 -17 9 -9 0 -13 3 -10 6 9 9 -95 64 -107 57 -5 -4 -6
-1 -2 5 4 7 -9 16 -34 23 -22 7 -40 16 -40 21 0 5 -4 6 -10 3 -5 -3 -10 -1
-10 5 0 6 -4 8 -10 5 -5 -3 -10 -1 -10 5 0 6 -4 9 -9 5 -5 -3 -12 -1 -16 5 -4
6 -11 8 -16 5 -5 -4 -9 -1 -9 6 0 7 -3 10 -6 6 -4 -3 -18 0 -33 7 -14 8 -39
15 -56 17 -16 2 -32 7 -35 11 -3 4 -17 9 -30 12 -14 3 -43 10 -64 15 -22 5
-43 8 -47 5 -4 -2 -10 0 -14 6 -3 5 -16 10 -28 10 -42 0 -62 2 -77 7 -14 5
-83 10 -243 16 -47 2 -56 -1 -52 -13 3 -9 -1 -7 -10 4 -8 11 -15 15 -15 8z"/>
<path d="M2134 1042 c6 -9 -8 -12 -58 -9 -36 2 -66 -1 -66 -6 0 -4 -4 -5 -10
-2 -16 10 -81 12 -86 3 -3 -5 -11 -5 -17 -1 -19 12 -58 13 -51 1 4 -6 2 -8 -4
-4 -20 12 -72 14 -72 2 0 -7 -3 -7 -8 -1 -4 6 -31 10 -60 10 -28 0 -52 -4 -52
-10 0 -5 -5 -3 -10 5 -8 12 -10 12 -10 1 0 -10 -3 -11 -14 -2 -10 8 -16 9 -21
1 -3 -6 -12 -7 -18 -3 -19 12 -58 13 -51 1 4 -6 2 -8 -4 -4 -20 12 -72 14 -72
2 0 -7 -3 -7 -8 -1 -4 6 -31 10 -60 10 -28 0 -52 -4 -52 -10 0 -5 -5 -3 -10 5
-8 12 -10 12 -10 1 0 -9 -4 -10 -12 -5 -7 5 -20 9 -28 8 -8 -1 -20 -2 -26 -3
-14 -1 -14 -183 0 -193 8 -6 8 -8 0 -8 -14 0 -14 -230 0 -230 8 0 8 -3 0 -8
-14 -10 -14 -224 0 -234 8 -6 8 -8 0 -8 -14 0 -15 -140 0 -141 82 -5 187 -2
190 6 3 6 5 4 5 -2 1 -9 8 -10 25 -3 13 5 26 6 29 3 11 -10 257 -8 261 2 3 6
5 4 5 -2 1 -9 8 -10 26 -3 13 5 26 6 29 2 5 -8 101 -6 123 3 7 2 14 1 17 -3 5
-8 120 -6 141 2 7 2 16 2 19 -1 6 -6 217 -8 241 -3 6 1 15 2 20 0 14 -2 208
-3 220 0 6 1 15 2 20 0 26 -5 214 -2 223 4 6 3 13 2 17 -3 3 -7 15 -7 30 -1
13 5 26 6 29 2 5 -8 120 -6 141 2 7 2 16 2 19 -1 10 -11 276 -9 280 2 3 6 5 4
5 -2 1 -9 8 -10 25 -3 13 5 26 6 29 3 11 -10 257 -8 261 2 3 6 5 4 5 -2 1 -9
8 -10 25 -3 13 5 27 6 30 3 5 -5 198 -8 221 -3 6 1 15 2 20 0 14 -2 208 -3
220 0 6 1 15 2 20 0 14 -2 208 -3 220 0 6 1 15 1 20 0 14 -2 128 -3 140 0 6 1
15 2 20 0 14 -2 208 -3 220 0 6 1 15 2 20 0 14 -2 208 -3 220 0 6 1 15 1 20 0
14 -2 128 -3 140 0 6 1 15 2 20 0 14 -2 208 -3 220 0 6 1 12 2 15 1 17 -6 258
-4 268 3 7 4 12 18 12 32 0 18 -4 23 -12 18 -10 -6 -10 -5 -2 7 9 10 12 121
12 386 0 355 -1 372 -19 376 -11 3 -19 1 -19 -4 0 -5 -12 -4 -27 2 -16 6 -29
10 -30 9 -16 -9 -62 -17 -58 -9 4 5 2 9 -4 9 -5 0 -13 -5 -16 -10 -4 -6 -12
-7 -18 -3 -19 12 -58 13 -51 1 4 -6 2 -8 -4 -4 -20 12 -72 14 -72 2 0 -7 -3
-7 -8 -1 -4 6 -31 10 -60 10 -28 0 -52 -4 -52 -10 0 -5 -5 -3 -10 5 -7 11 -10
11 -10 2 0 -8 -5 -10 -12 -5 -17 10 -27 11 -61 2 -16 -5 -25 -4 -22 2 8 12
-11 12 -53 0 -20 -6 -30 -6 -27 0 6 9 -62 2 -79 -9 -5 -3 -6 0 -2 6 9 14 -8
15 -52 3 -20 -6 -30 -6 -27 0 4 5 2 9 -4 9 -5 0 -13 -5 -16 -10 -4 -6 -12 -7
-18 -3 -19 12 -58 13 -51 1 4 -6 2 -8 -4 -4 -20 12 -72 14 -72 2 0 -7 -3 -7
-8 -1 -4 6 -31 10 -60 10 -28 0 -52 -4 -52 -10 0 -5 -5 -3 -10 5 -8 12 -10 12
-10 1 0 -10 -4 -11 -12 -3 -16 13 -20 13 -58 2 -19 -5 -28 -5 -25 1 8 12 -11
12 -53 0 -20 -6 -30 -6 -27 0 6 9 -62 2 -79 -9 -5 -3 -6 0 -2 6 9 14 -8 15
-52 3 -20 -6 -30 -6 -27 0 4 5 2 9 -4 9 -5 0 -13 -5 -16 -10 -4 -6 -12 -7 -18
-3 -19 12 -58 13 -51 1 4 -6 2 -8 -4 -4 -20 12 -72 14 -72 2 0 -7 -3 -7 -8 -1
-4 6 -31 10 -60 10 -28 0 -52 -4 -52 -10 0 -5 -5 -3 -10 5 -8 12 -10 12 -10 1
0 -10 -4 -11 -12 -3 -16 13 -20 13 -58 2 -19 -5 -28 -5 -25 1 8 12 -11 12 -53
0 -20 -6 -30 -6 -27 0 4 5 2 9 -4 9 -5 0 -13 -5 -16 -10 -4 -6 -12 -7 -18 -3
-19 12 -58 13 -51 1 4 -6 2 -8 -4 -4 -20 12 -72 14 -72 2 0 -7 -3 -7 -8 -1 -4
6 -31 10 -60 10 -28 0 -52 -4 -52 -10 0 -5 -5 -3 -10 5 -8 12 -10 12 -10 1 0
-10 -3 -11 -14 -2 -10 8 -16 9 -21 1 -3 -6 -12 -7 -18 -3 -19 12 -58 13 -51 1
4 -6 2 -8 -4 -4 -20 12 -72 14 -72 2 0 -7 -3 -7 -8 -1 -4 6 -31 10 -60 10 -28
0 -52 -4 -52 -10 0 -5 -5 -3 -10 5 -7 11 -10 11 -10 2 0 -8 -5 -10 -12 -6 -17
11 -88 11 -88 0 0 -5 -10 -1 -22 10 -12 10 -18 13 -14 6 6 -9 -8 -12 -58 -9
-36 2 -66 0 -66 -5 0 -4 -7 -5 -16 -1 -24 9 -86 10 -117 2 -16 -5 -25 -4 -22
2 4 5 0 9 -7 9 -7 0 -28 -4 -46 -9 -20 -6 -30 -6 -27 0 4 5 2 9 -4 9 -5 0 -13
-5 -16 -10 -4 -6 -12 -7 -18 -3 -19 12 -58 13 -51 1 4 -6 2 -8 -4 -4 -20 12
-72 14 -72 2 0 -7 -3 -7 -8 -1 -4 6 -31 10 -60 10 -28 0 -52 -4 -52 -10 0 -5
-5 -3 -10 5 -8 12 -10 12 -10 1 0 -10 -4 -11 -12 -3 -16 13 -20 13 -58 2 -19
-5 -28 -5 -25 1 8 12 -11 12 -53 0 -18 -6 -30 -6 -28 -2 3 4 -15 7 -40 6 -24
0 -44 -4 -44 -9 0 -5 -10 -1 -22 10 -12 10 -18 13 -14 6z"/>
</g>
</svg>
