<svg width="1211" height="1597" viewBox="0 0 1211 1597" fill="none" xmlns="http://www.w3.org/2000/svg">
<rect x="12" y="17" width="58" height="1488" fill="#e3d2c4"/>
<rect x="82" y="17" width="1107" height="1468" fill="#e3d2c480"/>
<mask id="path-3-inside-1_0_1" fill="white">
<path d="M0 50C0 22.3858 22.3858 0 50 0H1189C1200.05 0 1209 8.95431 1209 20V1459H0V50Z"/>
</mask>
<path d="M-20 50C-20 11.3401 11.3401 -20 50 -20H1189C1211.09 -20 1229 -2.09139 1229 20H1189H50C33.4315 20 20 33.4315 20 50H-20ZM1209 1459H0H1209ZM-20 1459V50C-20 11.3401 11.3401 -20 50 -20V20C33.4315 20 20 33.4315 20 50V1459H-20ZM1189 -20C1211.09 -20 1229 -2.09139 1229 20V1459H1189V20V-20Z" fill="#333333" mask="url(#path-3-inside-1_0_1)"/>
<line x1="72.5" y1="1485" x2="72.5" y2="-0.000488281" stroke="#333333" stroke-width="20"/>
<mask id="path-6-inside-2_0_1" fill="white">
<path d="M0 1541C0 1510.07 25.0721 1485 56 1485H1193V1597H56C25.0721 1597 0 1571.93 0 1541V1541Z"/>
</mask>
<path d="M-20 1541C-20 1499.03 14.0264 1465 56 1465H1193V1505H56C36.1177 1505 20 1521.12 20 1541H-20ZM1193 1617H56C14.0264 1617 -20 1582.97 -20 1541H20C20 1560.88 36.1177 1577 56 1577H1193V1617ZM56 1617C14.0264 1617 -20 1582.97 -20 1541C-20 1499.03 14.0264 1465 56 1465V1505C36.1177 1505 20 1521.12 20 1541C20 1560.88 36.1177 1577 56 1577V1617ZM1193 1485V1597V1485Z" fill="#333333" mask="url(#path-6-inside-2_0_1)"/>
<mask id="path-8-inside-3_0_1" fill="white">
<path d="M26 1539C26 1522.98 38.9837 1510 55 1510H1174C1179.52 1510 1184 1514.48 1184 1520V1558C1184 1563.52 1179.52 1568 1174 1568H55C38.9838 1568 26 1555.02 26 1539V1539Z"/>
</mask>
<path d="M26 1539C26 1522.98 38.9837 1510 55 1510H1174C1179.52 1510 1184 1514.48 1184 1520V1558C1184 1563.52 1179.52 1568 1174 1568H55C38.9838 1568 26 1555.02 26 1539V1539Z" stroke="#333333" stroke-width="40" mask="url(#path-8-inside-3_0_1)"/>
<line x1="10" y1="1455" x2="10" y2="1539" stroke="#333333" stroke-width="20"/>
<mask id="path-10-inside-4_0_1" fill="white">
<path d="M1189 1458H1209V1485C1209 1496.05 1200.05 1505 1189 1505V1505V1458Z"/>
</mask>
<path d="M1189 1458H1209H1189ZM1229 1485C1229 1507.09 1211.09 1525 1189 1525V1485H1229ZM1189 1505V1458V1505ZM1229 1458V1485C1229 1507.09 1211.09 1525 1189 1525V1485V1458H1229Z" fill="#333333" mask="url(#path-10-inside-4_0_1)"/>
<mask id="path-12-inside-5_0_1" fill="white">
<path d="M1175 1548H1201C1206.52 1548 1211 1552.48 1211 1558V1587C1211 1592.52 1206.52 1597 1201 1597H1175V1548Z"/>
</mask>
<path d="M1175 1528H1201C1217.57 1528 1231 1541.43 1231 1558L1191 1568H1175V1528ZM1231 1587C1231 1603.57 1217.57 1617 1201 1617H1175V1577H1191L1231 1587ZM1175 1597V1548V1597ZM1201 1528C1217.57 1528 1231 1541.43 1231 1558V1587C1231 1603.57 1217.57 1617 1201 1617L1191 1577V1568L1201 1528Z" fill="#333333" mask="url(#path-12-inside-5_0_1)"/>
</svg>
