<svg width="180" height="240" viewBox="0 0 180 240" fill="none" xmlns="http://www.w3.org/2000/svg">
<mask id="path-1-inside-1_0_1" fill="white">
<path d="M0 13C0 5.8203 5.8203 0 13 0H170C175.523 0 180 4.47715 180 10V230C180 235.523 175.523 240 170 240H13C5.8203 240 0 234.18 0 227V13Z"/>
</mask>
<path d="M-3 13C-3 4.16344 4.16344 -3 13 -3H170C177.18 -3 183 2.8203 183 10H177C177 6.13401 173.866 3 170 3H13C7.47715 3 3 7.47715 3 13H-3ZM180 240H0H180ZM13 240C4.16344 240 -3 232.837 -3 224V13C-3 4.16344 4.16344 -3 13 -3V3C7.47715 3 3 7.47715 3 13V227C3 234.18 7.47715 240 13 240ZM170 -3C177.18 -3 183 2.8203 183 10V227C183 234.18 177.18 240 170 240C173.866 240 177 235.523 177 230V10C177 6.13401 173.866 3 170 3V-3Z" fill="#333333" mask="url(#path-1-inside-1_0_1)"/>
<line x1="24.4999" y1="2.98525" x2="26.5555" y2="211.985" stroke="#333333" stroke-width="3"/>
<path d="M14 213.5H178.5V230C178.5 234.694 174.694 238.5 170 238.5H14C7.09644 238.5 1.5 232.904 1.5 226C1.5 219.096 7.09644 213.5 14 213.5Z" stroke="#333333" stroke-width="3"/>
</svg>
