<svg width="140" height="140" viewBox="0 0 140 140" fill="none" xmlns="http://www.w3.org/2000/svg">
<circle cx="70" cy="70" r="66" stroke="black" stroke-width="8"/>
<rect x="66" y="5" width="8" height="15" rx="4" fill="black"/>
<rect x="66" y="28" width="8" height="43" rx="4" fill="black"/>
<rect x="65" y="67.6569" width="8" height="35.5553" rx="4" transform="rotate(-45 65 67.6569)" fill="black"/>
<rect x="66" y="119" width="8" height="16" rx="4" fill="black"/>
<rect x="5" y="74" width="8" height="16" rx="4" transform="rotate(-90 5 74)" fill="black"/>
<rect x="23" y="25.6569" width="8" height="16" rx="4" transform="rotate(-45 23 25.6569)" fill="black"/>
<rect x="103" y="106.657" width="8" height="16" rx="4" transform="rotate(-45 103 106.657)" fill="black"/>
<rect x="119" y="74" width="8" height="16" rx="4" transform="rotate(-90 119 74)" fill="black"/>
<rect x="112.314" y="20" width="8" height="16" rx="4" transform="rotate(45 112.314 20)" fill="black"/>
<rect x="33.3137" y="103" width="8" height="16" rx="4" transform="rotate(45 33.3137 103)" fill="black"/>
</svg>
