<svg width="180" height="240" viewBox="0 0 180 240" fill="none" xmlns="http://www.w3.org/2000/svg">
<mask id="path-1-inside-1_0_1" fill="white">
<path d="M0 20C0 8.9543 8.95431 0 20 0H170C175.523 0 180 4.47715 180 10V230C180 235.523 175.523 240 170 240H13C5.8203 240 0 234.18 0 227V20Z"/>
</mask>
<path d="M-8 20C-8 4.53603 4.53603 -8 20 -8H170C179.941 -8 188 0.0588745 188 10H172C172 8.89543 171.105 8 170 8H20C13.3726 8 8 13.3726 8 20H-8ZM180 240H0H180ZM13 240C1.40202 240 -8 230.598 -8 219V20C-8 4.53603 4.53603 -8 20 -8V8C13.3726 8 8 13.3726 8 20V227C8 234.18 10.2386 240 13 240ZM170 -8C179.941 -8 188 0.0588745 188 10V222C188 231.941 179.941 240 170 240C171.105 240 172 235.523 172 230V10C172 8.89543 171.105 8 170 8V-8Z" fill="black" mask="url(#path-1-inside-1_0_1)"/>
<path d="M66.7334 117.248C51.9689 113.357 42.9079 99.1679 46.4951 85.5562C50.0823 71.9446 64.9592 64.0644 79.7237 67.9554" stroke="black" stroke-width="6"/>
<path d="M126.197 77C126.197 63.1929 114.781 52 100.697 52C86.614 52 75.1973 63.1929 75.1973 77" stroke="black" stroke-width="6" stroke-linecap="round"/>
<path d="M133.255 117.149C148.135 113.829 157.714 100.001 154.649 86.2621C151.584 72.5234 137.013 63.9706 122.133 67.29" stroke="black" stroke-width="6"/>
<path d="M64.1973 116V137.109C64.1973 137.617 64.5779 138.044 65.0824 138.102L81.5 140L100.5 141L118.5 140L135.31 138.1C135.815 138.043 136.197 137.615 136.197 137.107V116" stroke="black" stroke-width="6"/>
<line x1="26.9999" y1="4.97102" x2="28.9999" y2="211.971" stroke="black" stroke-width="6"/>
<path d="M14 214.5H177.5V230C177.5 234.142 174.142 237.5 170 237.5H14C7.64873 237.5 2.5 232.351 2.5 226C2.5 219.649 7.64873 214.5 14 214.5Z" stroke="black" stroke-width="5"/>
</svg>
